<svg width="3" height="12" viewBox="0 0 3 12" fill="none" xmlns="http://www.w3.org/2000/svg">
<path fill-rule="evenodd" clip-rule="evenodd" d="M1.5 9C2.328 9 3 9.672 3 10.5C3 11.328 2.328 12 1.5 12C0.672 12 -2.93741e-08 11.328 -6.55671e-08 10.5C-1.0176e-07 9.672 0.672 9 1.5 9ZM1.5 4.5C2.328 4.5 3 5.172 3 6C3 6.828 2.328 7.5 1.5 7.5C0.672 7.5 -2.26075e-07 6.828 -2.62268e-07 6C-2.98461e-07 5.172 0.672 4.5 1.5 4.5ZM1.5 -6.55671e-08C2.328 -1.0176e-07 3 0.672 3 1.5C3 2.328 2.328 3 1.5 3C0.672 3 -4.22777e-07 2.328 -4.5897e-07 1.5C-4.95163e-07 0.672 0.672 -2.93741e-08 1.5 -6.55671e-08Z" fill="#1E293B"/>
</svg>
